{
  "accessors": [
    {
      "bufferView": 2,
      "componentType": 5126,
      "count": 4197,
      "max": [
        33293.40625,
        56655.13671875,
        19343.5546875
      ],
      "min": [
        39.150390625,
        4634.75,
        1343.673828125
      ],
      "type": "VEC3"
    },
    {
      "bufferView": 2,
      "byteOffset": 50364,
      "componentType": 5126,
      "count": 4197,
      "max": [
        1.0,
        1.0,
        1.0
      ],
      "min": [
        -1.0,
        -1.0,
        -1.0
      ],
      "type": "VEC3"
    },
    {
      "bufferView": 1,
      "componentType": 5126,
      "count": 4197,
      "max": [
        0.9922080039978027,
        0.9878010153770447
      ],
      "min": [
        0.011342000216245651,
        0.005729000084102154
      ],
      "type": "VEC2"
    },
    {
      "bufferView": 0,
      "componentType": 5125,
      "count": 15762,
      "type": "SCALAR"
    },
    {
      "bufferView": 2,
      "byteOffset": 100728,
      "componentType": 5126,
      "count": 134,
      "max": [
        22006.99609375,
        21806.57421875,
        6406.39453125
      ],
      "min": [
        11325.5771484375,
        17779.421875,
        4464.9375
      ],
      "type": "VEC3"
    },
    {
      "bufferView": 2,
      "byteOffset": 102336,
      "componentType": 5126,
      "count": 134,
      "max": [
        0.5641541481018066,
        0.41721099615097046,
        0.9795616269111633
      ],
      "min": [
        -0.5546140670776367,
        -0.4262130856513977,
        -0.9912133812904358
      ],
      "type": "VEC3"
    },
    {
      "bufferView": 1,
      "byteOffset": 33576,
      "componentType": 5126,
      "count": 134,
      "max": [
        0.9733350276947021,
        0.9744600057601929
      ],
      "min": [
        0.031332001090049744,
        0.041505999863147736
      ],
      "type": "VEC2"
    },
    {
      "bufferView": 0,
      "byteOffset": 63048,
      "componentType": 5125,
      "count": 306,
      "type": "SCALAR"
    },
    {
      "bufferView": 2,
      "byteOffset": 103944,
      "componentType": 5126,
      "count": 956,
      "max": [
        27871.8046875,
        28451.642578125,
        15346.1865234375
      ],
      "min": [
        5460.7705078125,
        8196.95703125,
        49.9189453125
      ],
      "type": "VEC3"
    },
    {
      "bufferView": 2,
      "byteOffset": 115416,
      "componentType": 5126,
      "count": 956,
      "max": [
        0.9999890923500061,
        0.9861156344413757,
        0.9967381358146667
      ],
      "min": [
        -0.9999892115592957,
        -0.9893786311149597,
        -0.9993987679481506
      ],
      "type": "VEC3"
    },
    {
      "bufferView": 1,
      "byteOffset": 34648,
      "componentType": 5126,
      "count": 956,
      "max": [
        0.9936969876289368,
        0.9895169734954834
      ],
      "min": [
        0.009411999955773354,
        0.0026209999341517687
      ],
      "type": "VEC2"
    },
    {
      "bufferView": 0,
      "byteOffset": 64272,
      "componentType": 5125,
      "count": 4128,
      "type": "SCALAR"
    },
    {
      "bufferView": 2,
      "byteOffset": 126888,
      "componentType": 5126,
      "count": 246,
      "max": [
        26138.8203125,
        8772.66015625,
        24419.015625
      ],
      "min": [
        7199.0185546875,
        0.0,
        14067.615234375
      ],
      "type": "VEC3"
    },
    {
      "bufferView": 2,
      "byteOffset": 129840,
      "componentType": 5126,
      "count": 246,
      "max": [
        0.9999992251396179,
        0.6435572504997253,
        0.9999995231628418
      ],
      "min": [
        -0.9999992251396179,
        -0.999976634979248,
        -0.7654291987419128
      ],
      "type": "VEC3"
    },
    {
      "bufferView": 1,
      "byteOffset": 42296,
      "componentType": 5126,
      "count": 246,
      "max": [
        0.9297590255737305,
        0.9581649899482727
      ],
      "min": [
        0.03884600102901459,
        0.03915499895811081
      ],
      "type": "VEC2"
    },
    {
      "bufferView": 0,
      "byteOffset": 80784,
      "componentType": 5125,
      "count": 1110,
      "type": "SCALAR"
    },
    {
      "bufferView": 2,
      "byteOffset": 132792,
      "componentType": 5126,
      "count": 25,
      "max": [
        18807.046875,
        24567.119140625,
        4973.931640625
      ],
      "min": [
        14525.255859375,
        21631.20703125,
        2932.74560546875
      ],
      "type": "VEC3"
    },
    {
      "bufferView": 2,
      "byteOffset": 133092,
      "componentType": 5126,
      "count": 25,
      "max": [
        0.4995518922805786,
        0.7743658423423767,
        -0.5542078614234924
      ],
      "min": [
        -0.499554306268692,
        -0.06544199585914612,
        -0.9850360155105591
      ],
      "type": "VEC3"
    },
    {
      "bufferView": 1,
      "byteOffset": 44264,
      "componentType": 5126,
      "count": 25,
      "max": [
        0.245728000998497,
        0.6075980067253113
      ],
      "min": [
        0.1296280026435852,
        0.5251989960670471
      ],
      "type": "VEC2"
    },
    {
      "bufferView": 0,
      "byteOffset": 85224,
      "componentType": 5125,
      "count": 96,
      "type": "SCALAR"
    },
    {
      "bufferView": 2,
      "byteOffset": 133392,
      "componentType": 5126,
      "count": 723,
      "max": [
        23349.51171875,
        24567.119140625,
        10293.333984375
      ],
      "min": [
        9983.06640625,
        10523.62109375,
        2932.75439453125
      ],
      "type": "VEC3"
    },
    {
      "bufferView": 2,
      "byteOffset": 142068,
      "componentType": 5126,
      "count": 723,
      "max": [
        0.9927650094032288,
        0.9937464594841003,
        0.9831056594848633
      ],
      "min": [
        -0.9927585124969482,
        -0.9994890093803406,
        -0.9997618794441223
      ],
      "type": "VEC3"
    },
    {
      "bufferView": 1,
      "byteOffset": 44464,
      "componentType": 5126,
      "count": 723,
      "max": [
        0.9869949817657471,
        0.9906659722328186
      ],
      "min": [
        0.012804999947547913,
        0.017400000244379044
      ],
      "type": "VEC2"
    },
    {
      "bufferView": 0,
      "byteOffset": 85608,
      "componentType": 5125,
      "count": 3084,
      "type": "SCALAR"
    },
    {
      "bufferView": 2,
      "byteOffset": 150744,
      "componentType": 5126,
      "count": 5399,
      "max": [
        33332.5546875,
        56695.19140625,
        19393.31640625
      ],
      "min": [
        0.0,
        4585.0703125,
        0.0
      ],
      "type": "VEC3"
    },
    {
      "bufferView": 2,
      "byteOffset": 215532,
      "componentType": 5126,
      "count": 5399,
      "max": [
        0.9999996423721313,
        1.0,
        1.0
      ],
      "min": [
        -0.9999996423721313,
        -0.9999998807907104,
        -1.0
      ],
      "type": "VEC3"
    },
    {
      "bufferView": 1,
      "byteOffset": 50248,
      "componentType": 5126,
      "count": 5399,
      "max": [
        0.9936969876289368,
        0.9906659722328186
      ],
      "min": [
        0.009411999955773354,
        0.0026209999341517687
      ],
      "type": "VEC2"
    },
    {
      "bufferView": 0,
      "byteOffset": 97944,
      "componentType": 5125,
      "count": 20418,
      "type": "SCALAR"
    }
  ],
  "asset": {
    "extras": {
      "author": "VückyZ (https://sketchfab.com/vuckyz123)",
      "license": "CC-BY-4.0 (http://creativecommons.org/licenses/by/4.0/)",
      "source": "https://sketchfab.com/3d-models/blue-archive-koharu-cb-default-emotion-5d97f1aca1494968b4508bae44f88475",
      "title": "[Blue Archive] -Koharu- | CB (Default emotion)"
    },
    "generator": "Sketchfab-16.95.0",
    "version": "2.0"
  },
  "bufferViews": [
    {
      "buffer": 0,
      "byteLength": 179616,
      "name": "floatBufferViews",
      "target": 34963
    },
    {
      "buffer": 0,
      "byteLength": 93440,
      "byteOffset": 179616,
      "byteStride": 8,
      "name": "floatBufferViews",
      "target": 34962
    },
    {
      "buffer": 0,
      "byteLength": 280320,
      "byteOffset": 273056,
      "byteStride": 12,
      "name": "floatBufferViews",
      "target": 34962
    }
  ],
  "buffers": [
    {
      "byteLength": 553376,
      "uri": "scene.bin"
    }
  ],
  "extensionsUsed": [
    "KHR_materials_unlit"
  ],
  "images": [
    {
      "uri": "textures/body_baseColor.png"
    },
    {
      "uri": "textures/material_baseColor.png"
    },
    {
      "uri": "textures/eye_brow_baseColor.png"
    },
    {
      "uri": "textures/hair_baseColor.png"
    },
    {
      "uri": "textures/halo_glow_baseColor.png"
    },
    {
      "uri": "textures/mouth_baseColor.png"
    },
    {
      "uri": "textures/outline_baseColor.png"
    }
  ],
  "materials": [
    {
      "doubleSided": true,
      "extensions": {
        "KHR_materials_unlit": {}
      },
      "name": "body",
      "pbrMetallicRoughness": {
        "baseColorTexture": {
          "index": 0
        },
        "metallicFactor": 0.0
      }
    },
    {
      "doubleSided": true,
      "extensions": {
        "KHR_materials_unlit": {}
      },
      "name": "material",
      "pbrMetallicRoughness": {
        "baseColorTexture": {
          "index": 1
        },
        "metallicFactor": 0.0
      }
    },
    {
      "doubleSided": true,
      "extensions": {
        "KHR_materials_unlit": {}
      },
      "name": "eye_brow",
      "pbrMetallicRoughness": {
        "baseColorTexture": {
          "index": 2
        },
        "metallicFactor": 0.0
      }
    },
    {
      "doubleSided": true,
      "extensions": {
        "KHR_materials_unlit": {}
      },
      "name": "hair",
      "pbrMetallicRoughness": {
        "baseColorTexture": {
          "index": 3
        },
        "metallicFactor": 0.0
      }
    },
    {
      "doubleSided": true,
      "extensions": {
        "KHR_materials_unlit": {}
      },
      "name": "halo_glow",
      "pbrMetallicRoughness": {
        "baseColorTexture": {
          "index": 4
        },
        "metallicFactor": 0.0
      }
    },
    {
      "alphaMode": "BLEND",
      "doubleSided": true,
      "extensions": {
        "KHR_materials_unlit": {}
      },
      "name": "mouth",
      "pbrMetallicRoughness": {
        "baseColorTexture": {
          "index": 5
        },
        "metallicFactor": 0.0
      }
    },
    {
      "extensions": {
        "KHR_materials_unlit": {}
      },
      "name": "outline",
      "pbrMetallicRoughness": {
        "baseColorTexture": {
          "index": 6
        },
        "metallicFactor": 0.0
      }
    }
  ],
  "meshes": [
    {
      "name": "Object_0",
      "primitives": [
        {
          "attributes": {
            "NORMAL": 1,
            "POSITION": 0,
            "TEXCOORD_0": 2
          },
          "indices": 3,
          "material": 0,
          "mode": 4
        }
      ]
    },
    {
      "name": "Object_1",
      "primitives": [
        {
          "attributes": {
            "NORMAL": 5,
            "POSITION": 4,
            "TEXCOORD_0": 6
          },
          "indices": 7,
          "material": 1,
          "mode": 4
        }
      ]
    },
    {
      "name": "Object_2",
      "primitives": [
        {
          "attributes": {
            "NORMAL": 9,
            "POSITION": 8,
            "TEXCOORD_0": 10
          },
          "indices": 11,
          "material": 3,
          "mode": 4
        }
      ]
    },
    {
      "name": "Object_3",
      "primitives": [
        {
          "attributes": {
            "NORMAL": 13,
            "POSITION": 12,
            "TEXCOORD_0": 14
          },
          "indices": 15,
          "material": 4,
          "mode": 4
        }
      ]
    },
    {
      "name": "Object_4",
      "primitives": [
        {
          "attributes": {
            "NORMAL": 17,
            "POSITION": 16,
            "TEXCOORD_0": 18
          },
          "indices": 19,
          "material": 5,
          "mode": 4
        }
      ]
    },
    {
      "name": "Object_5",
      "primitives": [
        {
          "attributes": {
            "NORMAL": 21,
            "POSITION": 20,
            "TEXCOORD_0": 22
          },
          "indices": 23,
          "material": 2,
          "mode": 4
        }
      ]
    },
    {
      "name": "Object_6",
      "primitives": [
        {
          "attributes": {
            "NORMAL": 25,
            "POSITION": 24,
            "TEXCOORD_0": 26
          },
          "indices": 27,
          "material": 6,
          "mode": 4
        }
      ]
    }
  ],
  "nodes": [
    {
      "children": [
        1
      ],
      "matrix": [
        1.0,
        0.0,
        0.0,
        0.0,
        0.0,
        -1.0,
        -4.440892098500626e-16,
        0.0,
        0.0,
        4.440892098500626e-16,
        -1.0,
        0.0,
        0.0,
        0.0,
        0.0,
        1.0
      ],
      "name": "Sketchfab_model"
    },
    {
      "children": [
        2
      ],
      "matrix": [
        1.0,
        0.0,
        0.0,
        0.0,
        0.0,
        1.0,
        0.0,
        0.0,
        0.0,
        0.0,
        1.0,
        0.0,
        -16666.28125,
        -56653.33984375,
        -8777.6474609375,
        1.0
      ],
      "name": "skfb_offset"
    },
    {
      "children": [
        3,
        4,
        5,
        6,
        7,
        8,
        9
      ],
      "name": "Object_2"
    },
    {
      "mesh": 0,
      "name": "Object_3"
    },
    {
      "mesh": 1,
      "name": "Object_4"
    },
    {
      "mesh": 2,
      "name": "Object_5"
    },
    {
      "mesh": 3,
      "name": "Object_6"
    },
    {
      "mesh": 4,
      "name": "Object_7"
    },
    {
      "mesh": 5,
      "name": "Object_8"
    },
    {
      "mesh": 6,
      "name": "Object_9"
    }
  ],
  "samplers": [
    {
      "magFilter": 9729,
      "minFilter": 9987,
      "wrapS": 10497,
      "wrapT": 10497
    }
  ],
  "scene": 0,
  "scenes": [
    {
      "name": "Sketchfab_Scene",
      "nodes": [
        0
      ]
    }
  ],
  "textures": [
    {
      "sampler": 0,
      "source": 0
    },
    {
      "sampler": 0,
      "source": 1
    },
    {
      "sampler": 0,
      "source": 2
    },
    {
      "sampler": 0,
      "source": 3
    },
    {
      "sampler": 0,
      "source": 4
    },
    {
      "sampler": 0,
      "source": 5
    },
    {
      "sampler": 0,
      "source": 6
    }
  ]
}
